<svg id="Layer_1" enable-background="new 0 0 512.096 512.096" height="512" viewBox="0 0 512.096 512.096" width="512" xmlns="http://www.w3.org/2000/svg"><path d="m329.93 136.317c5.259 1.455 10.391-2.599 10.391-8.651 0-9.385-13.47-11.058-15.758-1.959-1.503 5.433 1.261 9.475 5.367 10.61z"/><path d="m426.142 36.804c-19.535-33.699-70.457-27.24-80.609 10.631l-12.66 47.25c-1.144 4.268 1.39 8.654 5.657 9.798 4.268 1.142 8.654-1.389 9.798-5.657l12.66-47.249c6.465-24.116 38.876-28.203 51.302-6.767 3.735 6.481 4.728 14.03 2.793 21.254l-44.324 165.435-4.66-4.66c-12.048-12.048-27.504-18.745-47.053-18.745l12.462-46.51c1.144-4.268-1.389-8.654-5.657-9.798-4.265-1.14-8.654 1.389-9.798 5.657l-13.571 50.65h-4.802l-46.992-175.38c-3.044-11.35-10.326-20.836-20.503-26.712-33.904-19.574-74.585 11.833-64.501 49.495l21.603 80.619c-22.625.384-41.137 17.92-43.068 40.143-26.124-19.887-64.178-1.267-64.178 31.838v164c0 77.196 62.804 140 140 140h56c77.196 0 140-62.804 140-140 0-53.996 2.217-68.846-8.662-93.766-6.263-14.427-14.077-24.287-23.556-33.765l46.715-174.36c3.039-11.35 1.481-23.205-4.396-33.401zm-242.218-6.69c12.57-21.711 44.915-17.094 51.309 6.741l45.882 171.241c-42.816 0-43.644-.552-49.074 1.362v-29.362c0-18.356-11.303-34.115-27.311-40.703l-23.591-88.035c-1.935-7.227-.943-14.776 2.785-21.244zm-23.883 149.982c0-15.439 12.561-28 28-28s28 12.561 28 28v88c0 15.439-12.561 28-28 28s-28-12.561-28-28c0-10.157 0-77.86 0-88zm-64 28c0-13.234 10.766-24 24-24s24 10.766 24 24v72c0 13.234-10.766 24-24 24s-24-10.766-24-24zm296.668 76.621c9.227 21.138 7.332 31.548 7.332 87.379 0 68.374-55.626 124-124 124h-56c-68.374 0-124-55.626-124-124v-60.022c19.829 14.919 48.483 8.351 59.757-14.081 25.411 27.385 70.998 12.501 75.848-24.089 11.745 13.576 29.077 22.192 48.395 22.192h35.433c1.792 3.116 3.14 6.488 3.912 10.376-59.43 11.607-103.345 64.306-103.345 125.624 0 4.418 3.582 8 8 8s8-3.582 8-8c0-55.917 41.725-103.64 97.056-111.01 3.975-.53 6.944-3.92 6.944-7.93 0-6.565-1.261-12.972-3.755-19.062-1.308-3.171-4.839-9.976-7.284-12.069-3.142-2.699-2.754-1.929-44.961-1.929-26.467 0-48-21.533-48-48 0-4.435 3.567-8 8-8h80.804c12.821 0 24.875 4.993 33.941 14.059 19.068 19.068 29.762 27.761 37.923 46.562z"/></svg>